<svg xmlns="http://www.w3.org/2000/svg" viewBox="0 0 499.98 378.33"><defs><style>.cls-1{fill:#fff;}.cls-2{fill:#333;}</style></defs><title>about_image</title><g id="レイヤー_2" data-name="レイヤー 2"><g id="pc"><g id="レイアウト"><rect class="cls-1" x="7.99" y="1.5" width="279.88" height="175.88"/><path class="cls-2" d="M287.87,175.88H8l1.5,1.5V1.5L8,3H287.87l-1.5-1.5V177.38a1.5,1.5,0,0,0,3,0V1.5a1.52,1.52,0,0,0-1.5-1.5H8a1.52,1.52,0,0,0-1.5,1.5V177.38a1.52,1.52,0,0,0,1.5,1.5H287.87A1.5,1.5,0,0,0,287.87,175.88Z"/><rect class="cls-1" x="27.98" y="17.49" width="239.9" height="143.9"/><path class="cls-2" d="M267.88,159.89H28l1.5,1.5V17.49L28,19h239.9l-1.5-1.5v143.9a1.5,1.5,0,0,0,3,0V17.49a1.52,1.52,0,0,0-1.5-1.5H28a1.52,1.52,0,0,0-1.5,1.5v143.9a1.52,1.52,0,0,0,1.5,1.5h239.9A1.5,1.5,0,0,0,267.88,159.89Z"/><rect class="cls-1" x="28.38" y="17.49" width="103.96" height="143.9"/><path class="cls-2" d="M132.34,159.89h-104l1.5,1.5V17.49L28.38,19h104l-1.5-1.5v143.9a1.5,1.5,0,0,0,3,0V17.49a1.52,1.52,0,0,0-1.5-1.5h-104a1.52,1.52,0,0,0-1.5,1.5v143.9a1.52,1.52,0,0,0,1.5,1.5h104A1.5,1.5,0,0,0,132.34,159.89Z"/><rect class="cls-1" x="164.32" y="17.49" width="103.96" height="143.9"/><path class="cls-2" d="M268.28,159.89h-104l1.5,1.5V17.49l-1.5,1.5h104l-1.5-1.5v143.9a1.5,1.5,0,0,0,3,0V17.49a1.52,1.52,0,0,0-1.5-1.5h-104a1.52,1.52,0,0,0-1.5,1.5v143.9a1.52,1.52,0,0,0,1.5,1.5h104A1.5,1.5,0,0,0,268.28,159.89Z"/><path class="cls-1" d="M335.35,248.58c-1.9,1.4-23.12,16.75-32,10-4.53-3.44-3.87-11.14-3-20,.8-8.21,3.64-26.59,19-51,12.44-19.75,22.47-26.57,29-30,4-2.13,12.35-6.35,17-3,3.59,2.59,3.39,8.57,3,14-1.9,26.52-2.87,40.05-13,57C351.94,231.29,346.26,240.56,335.35,248.58Z"/><path class="cls-2" d="M334.59,247.29c-6.75,4.94-30,20.31-33,4.91-1.4-7.18.27-15.88,1.78-23a111.85,111.85,0,0,1,8.33-24.41c7.66-16.33,18.48-34.24,34.21-44a53.32,53.32,0,0,1,8.48-4.33c2.48-1,5.78-2.2,8.4-1.36,3.94,1.27,4.25,5.63,4.29,9.07.13,10.42-1.17,21.46-2.78,31.76-3.13,20-13.4,39.06-29.67,51.37-1.51,1.15,0,3.75,1.52,2.59,16.48-12.48,27.43-31.58,30.83-51.88.88-5.24,1.41-10.52,1.87-15.8.55-6.41,1.53-13.08,1.2-19.5-.55-11-8.94-12.34-17.73-8.61-18.41,7.81-30.69,25.34-39.82,42.4a122,122,0,0,0-11.59,29.93c-1.82,7.8-3.39,16.92-2.46,24.87,2.43,20.73,28.73,5.15,37.7-1.41C337.65,248.75,336.16,246.15,334.59,247.29Z"/><rect class="cls-1" x="8.49" y="258.58" width="359.85" height="19.99" rx="5" ry="5"/><path class="cls-2" d="M363.34,277.07H21.23c-4.68,0-10.92,1.47-11.24-4.9-.21-4.08-1.39-11.58,4-12.09,1.58-.15,3.24,0,4.83,0H350.27c4.1,0,8.76-.62,12.83,0,2.79.42,3.55,2.05,3.74,4.53.26,3.48,1.42,11.79-3.9,12.51-1.9.25-1.09,3.14.8,2.89,4.16-.56,6-3.51,6.1-7.48.1-3.24.61-7.31-.21-10.48-.94-3.63-4-4.86-7.37-5-5.6-.18-11.25,0-16.86,0H62.1c-15.93,0-32.06-.73-48,0-4.4.2-6.93,2.87-7.13,7.26-.26,5.85-1.45,15,6.53,15.72,3.88.34,7.94,0,11.83,0h338A1.5,1.5,0,0,0,363.34,277.07Z"/><path class="cls-2" d="M367.34,189.62v86.95H7.49V376.5H407.32V189.62Z"/><path class="cls-2" d="M365.84,189.62v86.95l1.5-1.5H22.3c-4.48,0-9.77-.79-14.2,0a4.14,4.14,0,0,1-.61,0,1.52,1.52,0,0,0-1.5,1.5V376.5a1.52,1.52,0,0,0,1.5,1.5H391c5,0,10.65.74,15.62,0a5.3,5.3,0,0,1,.69,0,1.52,1.52,0,0,0,1.5-1.5V189.62a1.52,1.52,0,0,0-1.5-1.5h-40a1.5,1.5,0,0,0,0,3h40l-1.5-1.5V376.5l1.5-1.5H13.62c-1.34,0-4.19-.56-5.44,0a2.28,2.28,0,0,1-.69,0L9,376.5V276.57l-1.5,1.49h345c4.47,0,9.77.79,14.19,0a4.28,4.28,0,0,1,.62,0,1.52,1.52,0,0,0,1.5-1.49V189.62A1.5,1.5,0,0,0,365.84,189.62Z"/><path class="cls-1" d="M295.37,341.62,8.49,343.52c-5.16-32.48-7-57.16-7-67.95,0-9.44,1.25-17.36,5-25A24.86,24.86,0,0,1,7.86,248c6-9.66,29.14-28.07,153.56-29.2,0,0,122-.86,135,28.56,1.5,3.39,1.88,6.21,2,20C298.63,298.52,297,323.91,295.37,341.62Z"/><path class="cls-2" d="M295.37,340.12,72.24,341.6,8.49,342l1.44,1.1C6.43,320.91,3,298.12,3,275.57c0-11.26,1.84-24.67,11.11-32.23,5.67-4.63,12.83-7.43,19.72-9.67,13.79-4.49,28.29-6.86,42.65-8.64a671.77,671.77,0,0,1,101.17-4.5c30.55.86,62.59,2.41,92,11.46,12.3,3.8,26,9.24,27,23.74,1.88,28.4-.15,57.58-2.7,85.89-.17,1.92,2.83,1.91,3,0a690.24,690.24,0,0,0,2.88-81.72c-.18-5.87-.41-11.75-4.09-16.6-3.21-4.23-8-7.14-12.71-9.41-14-6.71-30-9.47-45.26-11.64-16.35-2.33-32.84-3.61-49.32-4.33a706.61,706.61,0,0,0-101,2.9c-16.42,1.64-33,3.86-48.9,8.32-8.25,2.3-16.78,5.2-23.89,10.11-5.91,4.09-9.26,9.14-11.65,16C-.53,265.18-.23,275.82.38,286.17c.69,11.84,1.94,23.64,3.45,35.4Q5.27,332.76,7,343.92A1.51,1.51,0,0,0,8.49,345l223.13-1.48,63.75-.42A1.5,1.5,0,0,0,295.37,340.12Z"/><path class="cls-1" d="M360.34,162.64c-1.71,3.91-4.2,9.77-7,17-9.65,24.92-8,27.58-14,37-1.77,2.78-8.17,9.85-21,24-4.6,5.07-8.42,9.21-11,12"/><path class="cls-2" d="M359.05,161.89c-4.58,10.5-8.84,21.16-12.48,32-1.94,5.83-3.31,12-6,17.57-2.61,5.31-6.59,9.56-10.5,13.94q-11.73,13.17-23.74,26.1c-1.31,1.42.81,3.54,2.12,2.12q12.19-13.15,24.14-26.54c3.78-4.26,7.65-8.42,10.27-13.52,2.54-4.94,3.89-10.38,5.58-15.64a367.8,367.8,0,0,1,13.23-34.54c.76-1.75-1.82-3.28-2.59-1.51Z"/><path class="cls-1" d="M441.31,163.64l5,2,22-77.95a3.16,3.16,0,0,0-6-2Z"/><path class="cls-2" d="M440.91,165.09l5,2a1.52,1.52,0,0,0,1.84-1.05l13.68-48.48q3.35-11.88,6.7-23.77c1-3.45,3.87-9.9-1.43-11.54-5.15-1.6-6.2,4.37-7.13,7.8l-6.4,23.76-13.31,49.43a1.5,1.5,0,0,0,2.89.8L453,126l5.12-19,2.56-9.5,1.54-5.7c.53-2,0-4.3,2.56-3.21,2.33,1,1.12,2.11.47,4.41l-1.34,4.75q-1.33,4.75-2.68,9.51l-5.37,19q-5.49,19.49-11,39l1.84-1.05-5-2C439.91,161.48,439.14,164.38,440.91,165.09Z"/><path class="cls-1" d="M478.15,99.09c7.87,1.75,15.84-.94,20.34-6.88a33.16,33.16,0,0,0-11.2-7,33.81,33.81,0,0,0-25,.87C462.51,86.55,467,96.59,478.15,99.09Z"/><path class="cls-2" d="M477.75,100.53c8.27,1.54,16.34-.65,21.8-7.26a1.53,1.53,0,0,0,0-2.12,35,35,0,0,0-38-6.4,1.53,1.53,0,0,0-.54,2c3,6.91,9.57,11.88,16.75,13.73a1.5,1.5,0,0,0,.8-2.89,22.38,22.38,0,0,1-15-12.35l-.54,2a31.89,31.89,0,0,1,34.38,5.93V91.15c-4.76,5.76-11.6,7.84-18.88,6.49C476.67,97.29,475.86,100.18,477.75,100.53Z"/><path class="cls-1" d="M454.79,99.39A21.31,21.31,0,0,1,443.65,102a18.58,18.58,0,0,1-10.31-3.61,34.82,34.82,0,0,1,3.3-4.66,37.36,37.36,0,0,1,5.51-5.2c4.12-3,13.24-5.59,24.68-4.75C466.22,85.94,463.41,94.79,454.79,99.39Z"/><path class="cls-2" d="M454,98.09a19,19,0,0,1-19.94-1l.54,2c2.79-4.56,6.6-9,11.59-11.16,6.4-2.82,13.73-3.11,20.6-2.71l-1.44-1.9A24.71,24.71,0,0,1,454,98.09a1.5,1.5,0,0,0,1.51,2.59A27.81,27.81,0,0,0,468.28,84.2a1.52,1.52,0,0,0-1.45-1.9c-7.48-.43-15.58,0-22.48,3.26-5.25,2.48-9.32,7.22-12.3,12.1a1.53,1.53,0,0,0,.54,2c7,4.76,15.52,4.83,23,1C457.26,99.79,455.75,97.2,454,98.09Z"/><path class="cls-1" d="M467.39,102.86a22.11,22.11,0,0,1-7.17,8c-.12.08-.32.21-.61.38a26.48,26.48,0,0,1-8.59,3.41,10.12,10.12,0,0,1-3-3.76c-1.8-4-.2-8.09.76-10.54,3.78-9.69,14.36-15.14,17.32-16.57C469.73,90.8,469.72,98.2,467.39,102.86Z"/><path class="cls-2" d="M466.09,102.11a21.67,21.67,0,0,1-11.62,10c-3.05,1.14-4.93.82-5.6-3.33-.53-3.28.6-6.71,2.05-9.59,3.28-6.47,9.53-11,15.92-14.11l-2.06-.54c2.63,5.46,3.84,11.82,1.31,17.55-.77,1.75,1.81,3.27,2.59,1.51,3-6.81,1.84-14-1.31-20.58a1.52,1.52,0,0,0-2.05-.53c-9.24,4.51-20.11,13.57-19.62,25a10.72,10.72,0,0,0,3.51,7.6c1.68,1.36,2.44,1.08,4.65.39a24.79,24.79,0,0,0,14.82-11.87C469.6,101.92,467,100.41,466.09,102.11Z"/><path class="cls-1" d="M450.3,338.51h-15q1-147.63,2-295.27a6.06,6.06,0,0,1,5-4.5,5.93,5.93,0,0,1,6,4.5Q449.31,190.89,450.3,338.51Z"/><path class="cls-2" d="M450.3,337h-15l1.5,1.49q.78-115.71,1.57-231.42l.39-57.86a24.84,24.84,0,0,1,0-3c.55-4.49.81-6,4.89-4.55,3.06,1.06,2.9.76,3.14,3.55.11,1.29,0,2.71,0,4l.1,15q.09,14.48.19,28.93l.78,114.72q.43,65.34.88,130.67a1.5,1.5,0,0,0,3,0Q451,213.83,450.11,89.13l-.21-30.92c0-4.64.9-10.47-.1-15a7.91,7.91,0,0,0-4.23-5.39c-4-1.87-8.86.94-9.73,5.2s-.09,9.73-.12,14.16l-.11,16q-.42,62.34-.85,124.69-.47,70.33-.95,140.65a1.51,1.51,0,0,0,1.5,1.5h15A1.5,1.5,0,0,0,450.3,337Z"/><path class="cls-1" d="M444.31,191.62a4.36,4.36,0,0,1-2,5,3.87,3.87,0,0,1-3,0q-11.51-38.48-23-76.95c-1-3.61,1.45-6.78,4-7,2-.18,4.21,1.43,5,4Q434.8,154.16,444.31,191.62Z"/><path class="cls-2" d="M442.81,191.62c.69,1.68.26,2.49-1.3,2.41-1.07.72-1.6.51-1.6-.62-.84-.94-1-3.4-1.4-4.7q-1.39-4.68-2.8-9.38-3-9.86-5.89-19.71l-5.61-18.76c-1.88-6.3-5-13.21-5.89-19.71l-.56-1.88q5.44-6.48,6.17-1.66a30.34,30.34,0,0,1,1.4,5.23l2.43,9.61q2.44,9.6,4.87,19.21L442.86,192c.47,1.87,3.37,1.08,2.89-.8l-15.09-59.57c-1.26-5-2-10.63-3.9-15.38-.81-2-1.95-3.81-4-4.65-4.36-1.74-8.05,2.33-8.11,6.54s2.44,9.19,3.63,13.17q2,6.57,3.92,13.14l9,30,3.93,13.13c.74,2.49,1.33,8.73,3.49,10.28,4.25,3.07,7.62-2.87,7.26-6.29C445.6,189.72,442.6,189.7,442.81,191.62Z"/><path class="cls-1" d="M462.3,376.5H423.55l-8.23-54h54Q465.79,349.51,462.3,376.5Z"/><path class="cls-2" d="M462.3,375H423.55l1.45,1.1-8.24-54L415.32,324h54l-1.5-1.49q-3.51,27-7,54c-.25,1.91,2.75,1.89,3,0l7-54c.11-.81-.77-1.5-1.49-1.5h-54a1.52,1.52,0,0,0-1.45,1.89l8.24,54a1.5,1.5,0,0,0,1.44,1.1H462.3A1.5,1.5,0,0,0,462.3,375Z"/><path class="cls-1" d="M398.56,129.27c-10.38,2.57-21-.76-27.19-8.51A44.13,44.13,0,0,1,386,111.08c16-6.4,30.21-.85,33.19.39C418.93,112.15,413.33,125.61,398.56,129.27Z"/><path class="cls-2" d="M398.17,127.82c-9.67,2.12-19.26-.47-25.74-8.12v2.12a42.9,42.9,0,0,1,46.37-8.9l-1-1.85c-3.3,8.06-11.12,14.42-19.59,16.75a1.5,1.5,0,0,0,.79,2.89,32.92,32.92,0,0,0,21.69-18.84c.33-.81-.38-1.57-1-1.84a45.77,45.77,0,0,0-49.29,9.67,1.53,1.53,0,0,0,0,2.12c7.17,8.46,18,11.22,28.65,8.89C400.85,130.3,400.05,127.41,398.17,127.82Z"/><path class="cls-1" d="M433.3,132.36a28.19,28.19,0,0,0,14.78,3.5,24.58,24.58,0,0,0,13.68-4.79,45.1,45.1,0,0,0-4.37-6.19,49,49,0,0,0-7.32-6.9c-5.46-4-17.56-7.41-32.75-6.3C418.13,114.52,421.85,126.26,433.3,132.36Z"/><path class="cls-2" d="M432.54,133.66c9.64,5,20.91,5,30-1.3a1.53,1.53,0,0,0,.54-2.05c-3.94-6.49-9.43-12.85-16.48-16-9.05-4.08-19.49-4.7-29.26-4.1a1.51,1.51,0,0,0-1.45,1.89,36.15,36.15,0,0,0,16.67,21.59,1.5,1.5,0,0,0,1.51-2.59,33.1,33.1,0,0,1-15.29-19.79l-1.44,1.89c9.24-.56,19.15-.11,27.75,3.7,6.58,2.91,11.73,8.91,15.4,15l.54-2.05c-8.17,5.66-18.25,5.84-27,1.29C432.35,130.17,430.83,132.76,432.54,133.66Z"/><path class="cls-1" d="M416.58,137a29.71,29.71,0,0,0,9.51,10.64,31.17,31.17,0,0,0,12.22,5,16.9,16.9,0,0,0,4-5c3.58-6.91.94-14.33,0-17-5-14.1-22.15-18.54-24-19C413.47,121,413.49,130.79,416.58,137Z"/><path class="cls-2" d="M415.29,137.73a32.36,32.36,0,0,0,20.53,15.91c8.09,2,10.35-11.51,9.55-17.17-2-13.81-13.7-23-26.65-26.24a1.53,1.53,0,0,0-1.7.69c-4.11,8.4-5.72,18.06-1.73,26.81.8,1.76,3.38.23,2.59-1.51-3.5-7.69-1.86-16.46,1.73-23.79l-1.69.69c9.72,2.42,19.52,8.53,23.06,18.29a23.31,23.31,0,0,1,1.6,9.87c-.3,3.46-2.2,10.33-6.58,9.31-7.74-1.82-14.39-7.5-18.12-14.37C417,134.52,414.37,136,415.29,137.73Z"/><path class="cls-1" d="M427.88,61.54c-9.2,6-20.39,5.94-28.56-.22a47.92,47.92,0,0,1,11.21-14.86,42,42,0,0,1,31.93-10.22C442.4,37.05,441,53,427.88,61.54Z"/><path class="cls-2" d="M427.13,60.24c-8.64,5.32-18.61,5.73-27.05-.22l.54,2c7.94-15.79,23.91-26.19,41.84-24.33l-1.5-1.5a33.23,33.23,0,0,1-13.83,24c-1.58,1.09-.08,3.69,1.51,2.59A36.42,36.42,0,0,0,444,36.24a1.54,1.54,0,0,0-1.5-1.5c-18.93-2-36.06,9.17-44.43,25.82a1.54,1.54,0,0,0,.54,2c9.26,6.53,20.59,6,30.07.22C430.28,61.82,428.78,59.23,427.13,60.24Z"/><path class="cls-1" d="M465.63,46.67a25.94,25.94,0,0,1-15.2-1.06,25,25,0,0,1-11.71-9.41,45.14,45.14,0,0,1,6-5.11,48.43,48.43,0,0,1,9-4.9c6.42-2.49,19-2.15,33.24,3.88C485.38,32.79,478.38,43.93,465.63,46.67Z"/><path class="cls-2" d="M465.23,45.22A24.41,24.41,0,0,1,440,35.44l-.23,1.82c5.35-5.25,12.24-10,19.87-10.86,9.18-1,18.54,1.67,27,5.11l-.9-2.2c-4.63,7.72-11.61,13.75-20.47,15.91-1.88.46-1.08,3.35.79,2.89,9.6-2.33,17.25-8.92,22.27-17.29a1.52,1.52,0,0,0-.9-2.2c-9.09-3.72-19.36-6.46-29.26-5-7.84,1.13-14.94,6.13-20.48,11.56a1.51,1.51,0,0,0-.23,1.81A27.48,27.48,0,0,0,466,48.11C467.91,47.73,467.11,44.83,465.23,45.22Z"/><path class="cls-1" d="M445.41,62.86A29.16,29.16,0,0,0,457.64,71a28.57,28.57,0,0,0,13.18,1.37,19.35,19.35,0,0,0,2.37-6.52c1.42-8.41-3.28-15.35-5-17.84-8.93-13.2-26.65-12.38-28.55-12.26C437.74,47.06,440.64,57.36,445.41,62.86Z"/><path class="cls-2" d="M444.35,63.92c6.27,6.76,15.57,11,24.91,10.1,8.06-.77,5.79-15.65,3.66-20.69-5.62-13.25-19.25-19.89-33.25-19.09a1.53,1.53,0,0,0-1.44,1.1c-1.48,9.92-.39,20.57,6.12,28.58,1.22,1.5,3.33-.63,2.12-2.12-5.75-7.08-6.65-16.94-5.35-25.66l-1.45,1.1c10.66-.61,21.81,3.23,27.85,12.4a27,27,0,0,1,3.94,8.79c.8,3.54,1.23,11.41-2.77,12.63-3.5,1.07-8.69-.68-11.93-2a28.75,28.75,0,0,1-10.29-7.26C445.16,60.39,443,62.51,444.35,63.92Z"/></g></g></g></svg>