<svg xmlns="http://www.w3.org/2000/svg" viewBox="0 0 5 22.8"><defs><style>.cls-1{stroke:#000;stroke-linejoin:round;}.cls-2{fill:#fff;}</style></defs><title>clock_h_1</title><g id="レイヤー_2" data-name="レイヤー 2"><g id="pc"><path class="cls-1" d="M3.5,21h-2C1.81,7,2.12.5,2.45.5S3.12,7,3.5,21Z"/><path class="cls-2" d="M2.5,22.3a2,2,0,0,1-1.41-.59A2,2,0,0,1,.5,20.3a2,2,0,1,1,4,0,2,2,0,0,1-.59,1.41A2,2,0,0,1,2.5,22.3Z"/><path d="M2.5,18.8a1.5,1.5,0,1,1-1.06.44A1.5,1.5,0,0,1,2.5,18.8m0-1a2.49,2.49,0,0,0-1.77.73A2.5,2.5,0,0,0,2.5,22.8a2.5,2.5,0,0,0,1.77-4.27A2.49,2.49,0,0,0,2.5,17.8Z"/></g></g></svg>