<svg xmlns="http://www.w3.org/2000/svg" viewBox="0 0 32 32"><defs><style>.cls-1{fill:none;}.cls-2,.cls-5{fill:#fff;}.cls-2,.cls-3,.cls-4,.cls-5{stroke:#000;stroke-miterlimit:10;}.cls-2{stroke-width:0.11px;}.cls-3,.cls-4{fill:#ffd324;}.cls-3{stroke-width:0.12px;}.cls-4{stroke-width:0.11px;}.cls-5{stroke-width:0.16px;}</style></defs><title>myroom</title><g id="レイヤー_2" data-name="レイヤー 2"><g id="ファビコン"><rect class="cls-1" width="32" height="32"/><path class="cls-2" d="M16.7.5h0A12.2,12.2,0,0,1,28.9,12.7V31a0,0,0,0,1,0,0H4.5a0,0,0,0,1,0,0V12.7A12.2,12.2,0,0,1,16.7.5Z"/><path class="cls-3" d="M16.48,1.72h.44A10.76,10.76,0,0,1,27.68,12.48V31a0,0,0,0,1,0,0h-22a0,0,0,0,1,0,0V12.48A10.76,10.76,0,0,1,16.48,1.72Z"/><path class="cls-4" d="M16.28,2.94h.83a9.34,9.34,0,0,1,9.34,9.34v17.5a0,0,0,0,1,0,0H6.94a0,0,0,0,1,0,0V12.28A9.34,9.34,0,0,1,16.28,2.94Z"/><circle class="cls-5" cx="23.17" cy="18.95" r="1.95"/></g></g></svg>