<svg xmlns="http://www.w3.org/2000/svg" xmlns:xlink="http://www.w3.org/1999/xlink" viewBox="0 0 303.19 303.19"><defs><style>.cls-1{fill:none;stroke:#000;stroke-width:3.19px;}.cls-1,.cls-2{stroke-miterlimit:10;}.cls-2{fill:#ffd324;stroke:#ffd324;stroke-width:1.28px;}.cls-3{clip-path:url(#clip-path);}.cls-4{fill:#fff;}.cls-5{fill:#42341f;}</style><clipPath id="clip-path"><circle class="cls-1" cx="151.6" cy="151.6" r="150"/></clipPath></defs><title>proflie_image</title><g id="レイヤー_2" data-name="レイヤー 2"><g id="pc"><g id="レイアウト"><circle class="cls-2" cx="151.6" cy="151.6" r="150"/><g class="cls-3"><path class="cls-4" d="M253.72,268.4c-2.84,21.23-59.5,33-102.12,33.2-41.52.15-100.79-10.61-104-33.2-1.44-10,8.56-19.82,16.6-26.17l1-.88c5-4.13,17-11.64,47.47-17.63q.32-6.69.64-13.4a99.78,99.78,0,0,1-20.43-26.17c-3.43-6.37-15.48-28.74-11.49-55.53C85.21,103,104.2,70.23,136.91,63.51c37.53-7.71,75.64,22.4,85.54,59.36,8.86,33.08-5.4,69.67-35.75,90.64q1.92,5.43,3.83,10.85c6.58.13,28.88,1.38,47.24,18.51C245.36,250,255,259,253.72,268.4Z"/><path class="cls-5" d="M209.68,195.64a102.28,102.28,0,0,0,12.77-65.11,77.64,77.64,0,0,1-17.88-8.3,78.75,78.75,0,0,1-10.21-7.66,40.24,40.24,0,0,1-8.93,3.2,40.8,40.8,0,0,1-14.69.63,19.71,19.71,0,0,1-6.38,2.56,20.62,20.62,0,0,1-12.13-1.28l-5.1,1.92a25.15,25.15,0,0,1-3.92.48A24.22,24.22,0,0,1,135,121a160.92,160.92,0,0,1-3.19-20.43c-.37-4-.57-7.85-.64-11.49l-7,4.47a89.36,89.36,0,0,1-44,40.85,237.9,237.9,0,0,0,7.66,35.11c5,16.77,9.07,24.51,8.29,24.89-1.44.71-22.46-22.57-25.53-55.53C67.77,109.15,81,87,85.21,80.11c5.2-8.45,12.65-20.55,28.09-28.73,16.68-8.83,32.78-7.84,39.57-7,8.09-2,22.3-4.08,37.66,1.28,37.11,12.93,46,57.29,47.24,63.83C246.34,156.13,213.7,191.43,209.68,195.64Z"/><path d="M79.9,126.21c-1,19.26,2.71,37.64,9.9,55.44s19.13,30.83,37.38,37.39c32.82,11.79,70.47-1.5,87.67-32.09,11-19.51,13.29-42.57,9.69-64.39-.4-2.43-4.09-1.4-3.7,1,5.93,35.87-7.12,78.47-44.29,91.6a71.25,71.25,0,0,1-42,2.13c-18.58-4.87-32.2-16.49-39.91-34C86.66,165.19,82.66,146,83.73,126.21c.14-2.46-3.69-2.45-3.83,0Z"/><path d="M150.36,144.77c-2.94,5.7-5.85,14.29-4.91,20.81.86,6,6.73,6.89,11.81,6.63,2.46-.13,2.47-4,0-3.83-1.85.09-4.83.52-6.39-.71-2.65-2.09-1.49-5.64-1-8.26a43.46,43.46,0,0,1,3.84-12.71c1.13-2.18-2.17-4.12-3.31-1.93Z"/><path d="M126.28,185.19a27.8,27.8,0,0,0,14,4.93c5.72.22,11.13-1.45,16.94-.73,3.92.49,7.8,2.18,11.77,1.14,4.5-1.17,7.76-4.69,10.16-8.49,1.32-2.1-2-4-3.31-1.94-2.39,3.8-6,7.4-10.84,6.9-4-.41-7.7-1.66-11.78-1.73-3.8-.07-7.45.87-11.22,1-5,.18-9.68-1.66-13.81-4.39-2.06-1.36-4,2-1.93,3.31Z"/><path class="cls-5" d="M189.07,119.76a59.08,59.08,0,0,0-11.67-.06l-.9.15-4.57.41a1.65,1.65,0,0,0-.74.18c-.7.44.12,1.31.9,1.66,7.32,3.25,16.2,2.94,24.55,2.54a5.64,5.64,0,0,0,2.49-.51C196.72,121.67,192.92,120.29,189.07,119.76Z"/><path d="M189.07,117.84c-1.56-.16-24.66-1.55-19.22,4.93,2.52,3,8.9,3.38,12.47,3.74,5.31.54,12.2,1.16,17.32-.54a1.93,1.93,0,0,0,.84-3.2,21,21,0,0,0-10.9-4.86c-2.41-.41-3.44,3.28-1,3.7,3.44.58,6.54,1.5,9.21,3.87l.85-3.2c-6.19,2-16.14,1-22.24-.69-1.21-.34-4.21-.57-2.17.38.74.34,2.17-.23,3-.31a60.83,60.83,0,0,1,11.84,0C191.52,121.93,191.5,118.1,189.07,117.84Z"/><path class="cls-5" d="M115.7,119.76a59.08,59.08,0,0,1,11.67-.06l.91.15,4.56.41a1.65,1.65,0,0,1,.74.18c.7.44-.12,1.31-.9,1.66-7.32,3.25-16.19,2.94-24.55,2.54a5.64,5.64,0,0,1-2.49-.51C108.05,121.67,111.85,120.29,115.7,119.76Z"/><path d="M115.7,121.67a61,61,0,0,1,11.62,0,13.85,13.85,0,0,0,2.48.28c1.7.58,2,.23.89-1a23.6,23.6,0,0,1-2.3.73c-6.14,1.72-16,2.75-22.24.69l.85,3.2c2.66-2.37,5.79-3.29,9.21-3.87,2.42-.42,1.39-4.11-1-3.7a21,21,0,0,0-10.9,4.86,1.93,1.93,0,0,0,.84,3.2c4.86,1.62,11.45,1,16.5.62,3.78-.32,10.65-.67,13.29-3.82,5.4-6.44-17.49-5.11-19.22-4.93C113.27,118.1,113.25,121.93,115.7,121.67Z"/><ellipse cx="123.88" cy="140.84" rx="3.63" ry="5.18"/><path d="M125.6,140.84c0,.9-.36,3.27-1.72,3.27s-1.71-2.4-1.71-3.27.4-3.27,1.71-3.27,1.68,2.36,1.72,3.27c.1,2.45,3.93,2.47,3.83,0-.14-3.15-1.83-7.1-5.55-7.1s-5.54,3.94-5.54,7.1,1.82,6.92,5.32,7.08c3.83.16,5.62-3.83,5.77-7.08C129.53,138.38,125.7,138.38,125.6,140.84Z"/><ellipse cx="180.64" cy="140.84" rx="3.63" ry="5.18"/><path d="M182.35,140.84c0,.9-.36,3.27-1.71,3.27s-1.72-2.4-1.72-3.27.4-3.27,1.72-3.27,1.67,2.36,1.71,3.27c.1,2.45,3.93,2.47,3.83,0-.14-3.15-1.83-7.1-5.54-7.1s-5.55,3.94-5.55,7.1,1.82,6.92,5.32,7.08c3.83.16,5.63-3.83,5.77-7.08C186.28,138.38,182.45,138.38,182.35,140.84Z"/><path d="M143.62,87.45a196.17,196.17,0,0,0,6.48,32.83c.68,2.36,4.37,1.35,3.69-1a190.17,190.17,0,0,1-6.34-31.81c-.27-2.42-4.1-2.45-3.83,0Z"/><path d="M155.39,90.47a56.06,56.06,0,0,0,14.69,30.84c1.68,1.81,4.38-.9,2.7-2.71a52.73,52.73,0,0,1-13.7-29.15c-.33-2.43-4-1.4-3.69,1Z"/><path d="M169.78,90.87a107.17,107.17,0,0,0,51.92,41.3c2.31.86,3.31-2.84,1-3.7a102.81,102.81,0,0,1-49.63-39.53c-1.36-2-4.67-.13-3.3,1.93Z"/><path d="M129,88.81a94.32,94.32,0,0,0,4.31,32.57c.74,2.35,4.44,1.35,3.69-1a91.45,91.45,0,0,1-4.17-31.56c.11-2.46-3.72-2.46-3.83,0Z"/><path d="M122.2,93.12c-7.47,19.58-23.35,32.14-42.47,39.5-2.27.87-1.28,4.58,1,3.69,20.52-7.89,37.14-21.2,45.15-42.17.88-2.31-2.82-3.3-3.7-1Z"/><path d="M153.29,46.16c16.32-6,34.64-6.15,49.83,3.07C214.76,56.3,223,67.71,228.61,79.9a104,104,0,0,1,8.76,57.83,94.33,94.33,0,0,1-29,56.52c-1.8,1.69.91,4.39,2.7,2.71,25.53-24,35.57-60,29.13-94-3.91-20.69-14.6-42.6-32.06-54.94-16.42-11.6-37.45-12.3-55.92-5.51-2.3.84-1.3,4.54,1,3.69Z"/><path d="M152.25,42.47c-16.62-2.63-33.84-.29-48.35,8.57C91.8,58.42,82.59,69.67,76.33,82.26c-9.47,19.06-13.81,41.51-10.93,62.63a77.56,77.56,0,0,0,29,51c1.92,1.5,4.65-1.19,2.71-2.71-25.08-19.62-32.89-51.45-26.7-81.76C74.37,92.25,82.85,72.87,98.05,60c14.72-12.5,34.33-16.79,53.18-13.81,2.41.38,3.45-3.31,1-3.69Z"/><path d="M188.69,224.1c-.29,6.67-6.78,10.88-12.29,13.36-7.74,3.48-16.49,4.75-24.92,4.75s-17.17-1.27-24.92-4.75c-5.5-2.48-12-6.69-12.28-13.36-.1-2.46-3.93-2.47-3.83,0,.76,17.82,27.69,21.92,41,21.94s40.27-4.13,41-21.94c.11-2.47-3.72-2.46-3.82,0Z"/><path d="M111.46,221.36c-24.76,5.61-63.13,16.51-65.82,47-.22,2.46,3.61,2.44,3.83,0,2.5-28.31,40.36-38.21,63-43.34,2.4-.55,1.38-4.24-1-3.7Z"/><path d="M255.64,268.4c-2-30.29-40.14-40.49-64.16-46.71-2.39-.62-3.41,3.07-1,3.69,22,5.7,59.53,15,61.35,43,.16,2.45,4,2.47,3.83,0Z"/><path d="M154.63,42.74a48.55,48.55,0,0,1,.47-11.92c.41-2.41-3.28-3.45-3.69-1a51.94,51.94,0,0,0-.61,12.94c.19,2.44,4,2.46,3.83,0Z"/><path d="M154.13,43.6a15.15,15.15,0,0,1,10.16-5.82c2.42-.28,2.45-4.11,0-3.83a18.88,18.88,0,0,0-12.87,6.94c-1.51,1.91,1.18,4.64,2.71,2.71Z"/><path d="M112.52,211.14a114.19,114.19,0,0,1-2,11.93c-.53,2.4,3.16,3.43,3.69,1a123.09,123.09,0,0,0,2.14-13c.28-2.44-3.55-2.42-3.83,0Z"/><path d="M185.06,213.22a19.27,19.27,0,0,0,4.7,11.71c1.61,1.88,4.31-.84,2.71-2.71a14.92,14.92,0,0,1-3.58-9c-.13-2.46-4-2.47-3.83,0Z"/></g><circle class="cls-1" cx="151.6" cy="151.6" r="150"/></g></g></g></svg>