<svg xmlns="http://www.w3.org/2000/svg" viewBox="0 0 200.9 250.95"><defs><style>.cls-1,.cls-4{fill:#fff;}.cls-1,.cls-2,.cls-3,.cls-4{stroke:#000;stroke-miterlimit:10;}.cls-1{stroke-width:0.9px;}.cls-2,.cls-3{fill:#ffd324;}.cls-3,.cls-4{stroke-width:0.9px;}.cls-5{font-size:24px;font-family:HiraginoSans-W0-83pv-RKSJ-H, Hiragino Sans;}</style></defs><title>room_2</title><g id="レイヤー_2" data-name="レイヤー 2"><g id="pc"><g id="レイアウト"><path class="cls-1" d="M100.45.45h0a100,100,0,0,1,100,100v150a0,0,0,0,1,0,0H.45a0,0,0,0,1,0,0v-150A100,100,0,0,1,100.45.45Z"/><path class="cls-2" d="M98.63,10.45h3.64a88.18,88.18,0,0,1,88.18,88.18V250.45a0,0,0,0,1,0,0h-180a0,0,0,0,1,0,0V98.63A88.18,88.18,0,0,1,98.63,10.45Z"/><path class="cls-3" d="M97,20.45h6.81A76.59,76.59,0,0,1,180.45,97V240.45a0,0,0,0,1,0,0h-160a0,0,0,0,1,0,0V97A76.59,76.59,0,0,1,97,20.45Z"/><circle class="cls-4" cx="158.45" cy="148.45" r="11"/><text class="cls-5" transform="translate(74.5 232.89)">Skills</text></g></g></g></svg>