<svg xmlns="http://www.w3.org/2000/svg" viewBox="0 0 205.92 250.96"><defs><style>.cls-1,.cls-4{fill:#fff;}.cls-1,.cls-2,.cls-3,.cls-4{stroke:#000;stroke-miterlimit:10;}.cls-1{stroke-width:0.92px;}.cls-2{fill:#ee4050;}.cls-2,.cls-3{stroke-width:1.01px;}.cls-3{fill:none;}.cls-4{stroke-width:0.91px;}.cls-5{font-size:24px;font-family:HiraginoSans-W0-83pv-RKSJ-H, Hiragino Sans;}</style></defs><title>room_3</title><g id="レイヤー_2" data-name="レイヤー 2"><g id="pc"><g id="レイアウト"><path class="cls-1" d="M101.7.46h2.52A101.24,101.24,0,0,1,205.46,101.7V250.46a0,0,0,0,1,0,0H.46a0,0,0,0,1,0,0V101.7A101.24,101.24,0,0,1,101.7.46Z"/><path class="cls-2" d="M100,10.46h5.95a89.28,89.28,0,0,1,89.28,89.28V250.46a0,0,0,0,1,0,0H10.71a0,0,0,0,1,0,0V99.73A89.28,89.28,0,0,1,100,10.46Z"/><path class="cls-3" d="M98.5,20.46h8.91A77.55,77.55,0,0,1,185,98V240.46a0,0,0,0,1,0,0H21a0,0,0,0,1,0,0V98A77.55,77.55,0,0,1,98.5,20.46Z"/><ellipse class="cls-4" cx="162.41" cy="148.46" rx="11.28" ry="11"/><text class="cls-5" transform="matrix(1.02, -0.01, 0.01, 1, 68.68, 233.34)">Proflie</text></g></g></g></svg>