<svg xmlns="http://www.w3.org/2000/svg" viewBox="0 0 120 100"><defs><style>.cls-1{fill:#006bbf;}.cls-2{fill:#00a3e2;}.cls-3{font-size:26.42px;}.cls-3,.cls-6{fill:#fff;font-family:HiraginoSans-W6-83pv-RKSJ-H, Hiragino Sans;}.cls-4{fill:#f03310;}.cls-5{fill:#ff5d0e;}.cls-6{font-size:27.41px;}</style></defs><title>skill_3</title><g id="レイヤー_2" data-name="レイヤー 2"><g id="pc"><g id="レイアウト"><path class="cls-1" d="M99,83.08,72.79,85.5,54.18,56.23Q61.61,28.12,69,0l51,30.51Q109.52,56.79,99,83.08Z"/><path class="cls-2" d="M97.48,79.79,73.85,82,57.1,55.63Q63.77,30.32,70.46,5l45.88,27.46Q106.91,56.14,97.48,79.79Z"/><path class="cls-1" d="M73.85,82,57.1,55.63Q63.77,30.32,70.46,5L93.4,18.75Q83.62,50.36,73.85,82Z"/><text class="cls-3" transform="matrix(0.69, 0.42, -0.3, 0.95, 61.65, 42.19)">CSS</text><path class="cls-4" d="M64.62,73.18,46.07,100,17.26,95.67,0,39.2,53.82,13.64Z"/><path class="cls-5" d="M61.78,72.2Q53.43,84.26,45.09,96.33L19.16,92.44,3.62,41.61l48.44-23Z"/><path class="cls-4" d="M45.09,96.33,19.16,92.44,3.62,41.61l24.22-11.5Z"/><text class="cls-6" transform="matrix(0.48, -0.23, 0.24, 0.97, 16.91, 77.42)">HTML</text></g></g></g></svg>