<svg xmlns="http://www.w3.org/2000/svg" viewBox="0 0 100 100"><defs><style>.cls-1{fill:#d6be00;}.cls-2{fill:#ffde00;}.cls-3{fill:#fff;}</style></defs><title>skill_4</title><g id="レイヤー_2" data-name="レイヤー 2"><g id="pc"><g id="レイアウト"><path class="cls-1" d="M93,78.22,51,100,5,78.22Q2.5,39.11,0,0H100Q96.51,39.11,93,78.22Z"/><path class="cls-2" d="M88.7,75.4,50.9,95,9.5,75.4,5,5H95Z"/><path class="cls-1" d="M50.9,95,9.5,75.4,5,5H50Z"/><path class="cls-3" d="M44.38,22.18A50.83,50.83,0,0,0,44,30V58.36c0,3.54-1.08,6-3.42,7.74a14.39,14.39,0,0,1-8.33,2.28,14.69,14.69,0,0,1-7.44-1.8,11,11,0,0,1-3.54-3.24l6.84-4c1.08,2,2.39,3,4.38,3,2.51,0,3.72-1.32,3.72-4.14V30a47.59,47.59,0,0,0-.48-7.8Zm.13-13.32v7.62H35.69V8.86Z"/><path class="cls-3" d="M58.9,52.58c1,5.2,3.24,7.27,7.92,7.27,4.44,0,7.2-2.22,7.2-5.81a5.16,5.16,0,0,0-1.56-3.83c-1.14-1-1.5-1.07-6.3-2.45s-6.6-2.06-8.63-3.29c-3.42-2.06-5.29-5.73-5.29-10.17a13.42,13.42,0,0,1,1.87-7.11c2.45-4,6.53-6,12-6,4.92,0,8.82,1.53,11.28,4.44,1.56,1.91,2.4,3.82,3.24,7.57l-7.92,1.3c-.66-4.21-2.7-6-6.6-6-3.72,0-6.23,2.14-6.23,5.35a4.3,4.3,0,0,0,1.85,3.6c1.32.84,2.58,1.3,6,2.29,6.12,1.69,8.58,2.76,10.56,4.67,2.34,2.14,3.48,5.28,3.48,9.48a14.1,14.1,0,0,1-2.94,8.65c-2.76,3.29-7,5-12.42,5-6.18,0-10.79-2.37-13.37-6.81a19.47,19.47,0,0,1-2.34-6.81Z"/></g></g></g></svg>