<svg xmlns="http://www.w3.org/2000/svg" viewBox="0 0 178.92 214.42"><defs><style>.cls-1{fill:#333;}.cls-1,.cls-2,.cls-3{stroke:#333;stroke-miterlimit:10;}.cls-1,.cls-2{stroke-width:1.42px;}.cls-2,.cls-3{fill:#fff;}.cls-3{stroke-width:1.13px;}</style></defs><title>skill_image</title><g id="レイヤー_2" data-name="レイヤー 2"><g id="pc"><g id="レイアウト"><rect class="cls-1" x="0.71" y="0.71" width="177.5" height="213"/><rect class="cls-2" x="7.81" y="7.81" width="163.3" height="198.8"/><rect class="cls-1" x="8.16" y="53.25" width="163.3" height="7.1"/><rect class="cls-1" x="8.16" y="102.95" width="163.3" height="7.1"/><rect class="cls-1" x="8.16" y="152.65" width="163.3" height="7.1"/><rect class="cls-2" x="8.87" y="67.45" width="9.8" height="34.79"/><rect class="cls-2" x="18.67" y="67.45" width="9.8" height="34.79"/><rect class="cls-2" x="28.47" y="67.45" width="9.8" height="34.79"/><rect class="cls-2" x="38.27" y="67.45" width="9.8" height="34.79"/><rect class="cls-2" x="48.07" y="67.45" width="9.8" height="34.79"/><rect class="cls-2" x="57.86" y="67.45" width="9.8" height="34.79"/><rect class="cls-2" x="67.66" y="67.45" width="9.8" height="34.79"/><rect class="cls-2" x="77.46" y="67.45" width="9.8" height="34.79"/><rect class="cls-2" x="87.26" y="67.45" width="9.8" height="34.79"/><rect class="cls-2" x="102.74" y="66.74" width="9.8" height="34.79" transform="translate(-21.84 40.53) rotate(-19.4)"/><rect class="cls-2" x="104.74" y="116.74" width="9.8" height="34.79" transform="translate(-46.51 59.1) rotate(-25.07)"/><rect class="cls-2" x="8.87" y="117.86" width="9.8" height="34.79"/><rect class="cls-2" x="18.67" y="117.86" width="9.8" height="34.79"/><rect class="cls-2" x="28.47" y="117.86" width="9.8" height="34.79"/><rect class="cls-2" x="38.27" y="117.86" width="9.8" height="34.79"/><rect class="cls-2" x="48.07" y="117.86" width="9.8" height="34.79"/><rect class="cls-2" x="57.86" y="117.86" width="9.8" height="34.79"/><rect class="cls-2" x="67.66" y="117.86" width="9.8" height="34.79"/><rect class="cls-2" x="77.46" y="117.86" width="9.8" height="34.79"/><rect class="cls-2" x="87.26" y="117.86" width="9.8" height="34.79"/><rect class="cls-2" x="120.63" y="117.86" width="9.8" height="34.79"/><rect class="cls-2" x="130.28" y="117.86" width="9.8" height="34.79"/><rect class="cls-2" x="140.08" y="117.86" width="9.8" height="34.79"/><rect class="cls-2" x="149.88" y="117.86" width="9.8" height="34.79"/><rect class="cls-2" x="159.68" y="117.86" width="9.8" height="34.79"/><rect class="cls-2" x="153.73" y="169.69" width="9.8" height="34.79" transform="translate(-69.75 97.61) rotate(-28.31)"/><rect class="cls-2" x="8.87" y="170.4" width="9.8" height="34.79"/><rect class="cls-2" x="18.67" y="170.4" width="9.8" height="34.79"/><rect class="cls-2" x="28.47" y="170.4" width="9.8" height="34.79"/><rect class="cls-2" x="38.27" y="170.4" width="9.8" height="34.79"/><rect class="cls-2" x="48.07" y="170.4" width="9.8" height="34.79"/><rect class="cls-2" x="57.86" y="170.4" width="9.8" height="34.79"/><rect class="cls-2" x="67.66" y="170.4" width="9.8" height="34.79"/><rect class="cls-2" x="77.46" y="170.4" width="9.8" height="34.79"/><rect class="cls-2" x="87.26" y="170.4" width="9.8" height="34.79"/><rect class="cls-2" x="97.06" y="170.4" width="9.8" height="34.79"/><rect class="cls-2" x="106.85" y="170.4" width="9.8" height="34.79"/><rect class="cls-2" x="116.65" y="170.4" width="9.8" height="34.79"/><rect class="cls-2" x="126.45" y="170.4" width="9.8" height="34.79"/><rect class="cls-2" x="136.25" y="170.4" width="9.8" height="34.79"/><rect class="cls-2" x="11.71" y="26.98" width="29.11" height="21.3"/><rect class="cls-3" x="14.2" y="29.11" width="24.14" height="16.33"/><rect class="cls-3" x="24.49" y="23.43" width="4.26" height="3.55"/><rect class="cls-3" x="15.97" y="48.28" width="4.26" height="4.26"/><rect class="cls-3" x="31.59" y="48.28" width="4.26" height="4.26"/></g></g></g></svg>