<svg xmlns="http://www.w3.org/2000/svg" viewBox="0 0 100 100"><defs><style>.cls-1{fill:#76beff;}.cls-2{fill:none;stroke:#76beff;stroke-linecap:round;stroke-linejoin:round;stroke-width:4px;}</style></defs><title>skill_2</title><g id="レイヤー_2" data-name="レイヤー 2"><g id="pc"><g id="レイアウト"><path class="cls-1" d="M96,4V96H4V4H96m4-4H0V100H100V0Z"/><path class="cls-1" d="M86,14V86H14V14H86m4-4H10V90H90V10Z"/><path class="cls-2" d="M30,74c-.2-9.85-.15-18.59,0-26,.2-9.84.49-14.42,4-18,.42-.43,5.44-5.4,12-4,5.62,1.2,9.67,6.51,10,12a13,13,0,0,1-4,10c-5,4.69-14,4.94-22,0"/><path class="cls-2" d="M64,48c-5.5,2.4-10.26,5.24-10,8,.46,4.78,15.66,5.56,16,10,.15,1.91-2.45,4.5-12,8"/></g></g></g></svg>