<svg xmlns="http://www.w3.org/2000/svg" viewBox="0 0 272.01 157.86"><defs><style>.cls-1,.cls-2,.cls-3,.cls-4{fill:#fff;stroke:#333;}.cls-1,.cls-2,.cls-3{stroke-miterlimit:10;}.cls-1,.cls-4{stroke-width:2px;}.cls-3{stroke-width:1.83px;}.cls-4{stroke-linecap:round;stroke-linejoin:round;}</style></defs><title>work_image</title><g id="レイヤー_2" data-name="レイヤー 2"><g id="pc"><g id="レイアウト"><path class="cls-1" d="M62,154a17.19,17.19,0,0,1-4,2c-7.22,2.4-13.93-.86-16-2l0-80H62Z"/><path class="cls-1" d="M232,154a24.21,24.21,0,0,1-13,2,23.13,23.13,0,0,1-7-2l0-80h20Z"/><path class="cls-1" d="M271,68v9.94c0,13.81-60.43,25-135,25.06S1,91.86,1,78.06V68"/><ellipse class="cls-1" cx="136" cy="67.5" rx="135" ry="25"/><path class="cls-1" d="M98.17,1h76a2,2,0,0,1,2,2V51a0,0,0,0,1,0,0h-80a0,0,0,0,1,0,0V3A2,2,0,0,1,98.17,1Z"/><path class="cls-1" d="M191.62,70.5h-112A2,2,0,0,1,78.27,67L96.17,50.5h80L193,67.07A2,2,0,0,1,191.62,70.5Z"/><path class="cls-1" d="M191.62,70.5h-112A2,2,0,0,1,78.27,67L96.17,50.5h80L193,67.07A2,2,0,0,1,191.62,70.5Z"/><path class="cls-1" d="M103.17,6h66a2,2,0,0,1,2,2V46a0,0,0,0,1,0,0h-70a0,0,0,0,1,0,0V8A2,2,0,0,1,103.17,6Z"/><line class="cls-2" x1="81.01" y1="68" x2="191.01" y2="68"/><path class="cls-3" d="M176.51,62h-80l7.42-7.5h66Z"/><path class="cls-1" d="M209,59h0a10,10,0,0,1,10,10v0a0,0,0,0,1,0,0H199a0,0,0,0,1,0,0v0A10,10,0,0,1,209,59Z"/><path class="cls-4" d="M65.78,62.77A38.48,38.48,0,0,1,54,65a38.17,38.17,0,0,1-14-2.23V37a42.5,42.5,0,0,1,25.77,0Z"/><path class="cls-4" d="M65.78,62.77A38.48,38.48,0,0,1,54,65a38.17,38.17,0,0,1-14-2.23V37a42.63,42.63,0,0,0,13,2,42.38,42.38,0,0,0,12.77-2Z"/><path class="cls-4" d="M65.77,42.52V46.2h3.32v7.37H65.77v3.68h4.38a3.37,3.37,0,0,0,3.36-3.37v-8a3.37,3.37,0,0,0-3.36-3.36Z"/></g></g></g></svg>